<svg width="45" height="45" viewBox="0 0 45 45" fill="none" xmlns="http://www.w3.org/2000/svg">
<rect width="45" height="45" rx="8" fill="white"/>
<path d="M30.5 31.5V29.5C30.5 28.4391 30.0786 27.4217 29.3284 26.6716C28.5783 25.9214 27.5609 25.5 26.5 25.5H18.5C17.4391 25.5 16.4217 25.9214 15.6716 26.6716C14.9214 27.4217 14.5 28.4391 14.5 29.5V31.5" stroke="black" stroke-linecap="round" stroke-linejoin="round"/>
<path d="M22.5 21.5C24.7091 21.5 26.5 19.7091 26.5 17.5C26.5 15.2909 24.7091 13.5 22.5 13.5C20.2909 13.5 18.5 15.2909 18.5 17.5C18.5 19.7091 20.2909 21.5 22.5 21.5Z" stroke="black" stroke-linecap="round" stroke-linejoin="round"/>
</svg>
